<svg width="1300" height="1300" viewBox="0 0 1300 1300" fill="none" xmlns="http://www.w3.org/2000/svg">
<path d="M650 1300C290.71 1300 0 1008.86 0 650C0 290.71 291.141 0 650 0C1009.29 0 1300 291.141 1300 650C1300.43 1009.29 1009.29 1300 650 1300Z" fill="#B5E2C9"/>
<mask id="mask0_416_1317" style="mask-type:alpha" maskUnits="userSpaceOnUse" x="0" y="0" width="1301" height="1300">
<path d="M650 1300C290.71 1300 0 1008.86 0 650C0 290.71 291.141 0 650 0C1009.29 0 1300 291.141 1300 650C1300.43 1009.29 1009.29 1300 650 1300Z" fill="#F7C0B5"/>
</mask>
<g mask="url(#mask0_416_1317)">
<path d="M1015.73 1197.33C1012.7 1199.5 1009.23 1201.67 1006.2 1203.83C1002.73 1206 999.698 1208.17 996.231 1209.9C993.198 1211.63 990.598 1213.37 987.564 1215.1C987.131 1215.53 986.698 1215.53 986.264 1215.97C976.298 1222.03 965.898 1227.67 955.498 1232.87C952.464 1234.6 948.998 1236.33 945.964 1237.63C945.964 1237.63 945.531 1238.07 945.098 1238.07C941.631 1239.8 938.164 1241.53 934.698 1243.27C927.764 1246.73 920.398 1249.77 913.464 1252.8C909.998 1254.53 906.098 1255.83 902.631 1257.13C899.164 1258.43 895.264 1260.17 891.798 1261.47C888.331 1262.77 884.431 1264.5 880.964 1265.8C880.964 1265.8 880.964 1265.8 880.531 1265.8C877.064 1267.1 873.164 1268.4 869.698 1269.7C861.898 1272.3 853.664 1274.9 845.864 1277.5C843.264 1278.37 840.231 1279.23 837.631 1280.1C829.398 1282.7 821.164 1284.87 812.931 1286.6C809.898 1287.47 806.864 1287.9 803.398 1288.77C795.598 1290.5 787.364 1292.23 779.564 1293.97C777.831 1294.4 776.531 1294.4 774.798 1294.83C772.198 1295.27 769.164 1295.7 766.564 1296.13C762.664 1296.57 759.198 1297.43 755.298 1297.87C753.564 1298.3 751.831 1298.3 750.098 1298.73C747.931 1299.17 745.331 1299.6 742.731 1299.6C735.798 1300.47 728.431 1301.33 721.498 1302.2C719.331 1302.63 716.731 1302.63 714.564 1303.07H714.131C711.098 1303.5 708.064 1303.5 705.031 1303.93C701.998 1304.37 698.964 1304.37 695.931 1304.37C694.198 1304.37 692.031 1304.8 690.298 1304.8C686.831 1304.8 683.798 1305.23 680.764 1305.23C676.431 1305.23 672.531 1305.67 668.198 1305.67C663.864 1305.67 659.964 1305.67 655.631 1305.67C652.598 1305.67 649.564 1305.67 646.531 1305.67C464.098 1303.07 299.431 1225.5 182.431 1102.43C182.431 1102.43 182.431 1102 181.998 1102C195.431 1075.57 245.264 1027.9 297.264 988.466C363.131 938.632 456.298 907.866 456.298 907.866C456.298 907.866 517.398 897.899 744.031 945.132C916.931 981.532 990.598 1129.3 1015.73 1197.33Z" fill="#FEE4BF"/>
<path d="M792.131 1065.16C783.031 1109.8 724.098 1136.23 624.865 1096.36C503.098 1046.96 456.298 907.865 456.298 907.865C449.798 808.198 434.631 722.831 434.631 722.831C575.465 710.698 741.865 875.365 741.865 875.365L760.931 956.831C762.665 963.765 766.131 969.831 771.331 974.165C780.431 989.765 798.198 1036.56 792.131 1065.16Z" fill="#FEE4BF"/>
<path d="M771.331 974.599C688.564 970.266 627.464 958.133 562.031 840.699C617.497 889.666 682.931 908.299 751.831 916.966L760.931 956.832C762.664 964.199 766.131 970.266 771.331 974.599Z" fill="#EFBDA5"/>
<path d="M942.498 452.431C950.298 488.831 954.198 518.298 932.964 615.365C911.731 712.431 952.464 809.498 850.198 898.331C781.298 958.131 660.831 969.398 564.631 903.965C532.131 881.865 502.231 851.098 477.964 810.798C458.898 779.165 436.798 749.265 412.098 721.965C377.864 684.698 336.698 609.731 357.064 477.131C389.998 261.332 603.631 236.632 729.731 260.465C855.831 284.298 921.264 356.231 942.498 452.431Z" fill="#FEE4BF"/>
<path d="M527.797 621.865C527.797 621.865 514.364 556.865 451.097 564.665C396.497 571.598 377.431 702.465 501.364 738.865" fill="#FEE4BF"/>
<path d="M497.465 679.499C497.465 679.499 481.865 669.532 483.598 652.199C486.198 631.832 483.598 619.265 474.065 615.365C450.231 605.399 445.465 633.132 446.331 636.599" stroke="#423232" stroke-width="13" stroke-miterlimit="10" stroke-linecap="round" stroke-linejoin="round"/>
<path d="M828.097 721.531C828.097 721.531 844.564 722.398 860.164 703.765C868.831 693.365 876.197 680.365 871.431 676.465C866.664 672.131 788.231 684.265 783.031 694.665C777.831 705.065 808.164 721.531 828.097 721.531Z" fill="#EFBDA5"/>
<path d="M841.098 575.932C841.098 575.932 841.965 617.099 868.398 663.032C880.098 683.399 862.331 716.765 823.765 722.399" stroke="#423232" stroke-width="13" stroke-miterlimit="10" stroke-linecap="round" stroke-linejoin="round"/>
<path opacity="0.42" d="M606.231 743.631C630.882 743.631 650.865 727.14 650.865 706.797C650.865 686.455 630.882 669.964 606.231 669.964C581.581 669.964 561.598 686.455 561.598 706.797C561.598 727.14 581.581 743.631 606.231 743.631Z" fill="#F2A5B2"/>
<path opacity="0.42" d="M926.031 670.832C924.731 695.098 925.164 718.932 923.431 742.765C904.364 738.432 890.498 724.132 890.498 707.232C890.498 689.032 905.664 674.298 926.031 670.832Z" fill="#F2A5B2"/>
<path d="M377.176 903.566C377.176 903.566 440.442 878.433 452.142 877.566L453.009 887.533C453.009 887.533 402.742 909.2 399.709 912.666C396.676 916.133 377.176 903.566 377.176 903.566Z" fill="#7E5D6D"/>
<path d="M1158.04 1466.03H62.5762C62.5762 1466.03 69.0762 1264.97 134.943 1121.53C184.776 1013.2 304.376 941.699 391.476 910.499C416.176 901.832 435.243 892.299 453.01 887.532C453.01 889.699 454.309 905.732 454.309 907.466C454.309 907.466 526.243 1006.7 686.576 1005.4C782.776 1004.97 755.909 942.566 755.909 942.566C764.143 940.832 771.943 938.666 779.743 936.066C782.343 935.199 800.543 927.832 802.709 926.966C858.609 941.699 927.076 983.299 1026.31 1066.5C1138.11 1160.53 1158.04 1466.03 1158.04 1466.03Z" fill="#E89D6B"/>
<mask id="mask1_416_1317" style="mask-type:alpha" maskUnits="userSpaceOnUse" x="62" y="887" width="1097" height="580">
<path d="M1158.04 1466.03H62.5762C62.5762 1466.03 69.0762 1264.97 134.943 1121.53C184.776 1013.2 304.376 941.699 391.476 910.499C416.176 901.832 435.243 892.299 453.01 887.532C453.01 889.699 454.309 905.732 454.309 907.466C454.309 907.466 526.243 1006.7 686.576 1005.4C782.776 1004.97 755.909 942.566 755.909 942.566C764.143 940.832 771.943 938.666 779.743 936.066C782.343 935.199 800.543 927.832 802.709 926.966C858.609 941.699 927.076 983.299 1026.31 1066.5C1138.11 1160.53 1158.04 1466.03 1158.04 1466.03Z" fill="#E89D6B"/>
</mask>
<g mask="url(#mask1_416_1317)">
<path d="M287.476 877.999C311.309 878.866 323.443 879.299 347.276 878.866C368.509 891.432 378.909 897.499 400.576 909.199C422.676 907.899 433.943 907.033 456.043 904.433C478.143 914.833 488.976 920.033 511.076 929.999C533.609 926.533 544.876 924.366 566.976 920.032C589.509 928.699 601.209 932.599 623.742 939.966C646.276 934.332 657.542 930.866 680.076 924.366C703.476 930.432 715.176 933.466 738.576 938.666C761.109 930.433 772.376 926.533 794.909 917.433C818.742 921.333 830.876 923.066 854.709 926.099C876.809 915.699 888.076 910.499 910.176 899.233C934.443 900.533 946.576 900.966 970.842 901.399C992.509 888.399 1003.34 881.899 1025.01 868.466C1052.31 866.299 1065.74 864.999 1093.04 861.966C1090.88 872.366 1090.01 877.566 1088.28 887.966C1065.74 890.566 1054.04 891.866 1031.51 893.599C1009.41 907.466 998.576 914.399 976.042 927.399C951.342 927.399 939.209 926.966 914.509 925.666C891.976 936.933 880.709 942.566 858.176 952.966C833.909 949.932 821.776 948.199 797.509 944.733C774.976 953.833 763.276 958.166 740.742 965.966C716.909 960.766 705.209 957.733 681.809 951.666C659.276 958.166 647.576 961.633 625.043 967.266C602.076 959.466 590.376 955.566 567.409 946.899C544.876 951.233 533.609 953.399 510.642 956.866C488.109 946.899 477.276 942.132 454.743 931.299C432.209 933.466 420.943 934.332 398.843 935.632C377.176 923.932 366.343 917.866 345.109 904.866C325.176 904.866 315.209 904.866 295.276 903.999C292.243 894.033 290.942 888.833 287.476 877.999Z" fill="#FFFF8D"/>
<path d="M281.409 988.066C305.243 988.499 316.943 988.499 341.209 987.632C362.876 999.766 373.709 1005.4 395.376 1016.67C417.476 1014.93 428.309 1013.63 450.409 1010.6C472.509 1020.57 483.776 1025.33 506.309 1034.43C528.409 1030.53 539.243 1027.93 561.776 1023.17C584.743 1030.97 596.443 1034.87 619.409 1041.8C641.509 1035.3 652.776 1032.27 674.876 1024.9C698.276 1030.53 710.409 1033.13 733.809 1037.9C755.909 1029.23 766.743 1024.9 788.843 1015.37C813.109 1018.83 824.809 1020.13 849.076 1022.3C870.743 1011.47 881.576 1005.83 903.243 994.132C927.509 994.999 940.076 994.999 964.343 994.566C985.576 981.566 995.976 974.633 1017.21 960.766C1044.51 958.166 1058.38 956.866 1085.68 952.966C1083.94 963.366 1083.51 968.566 1081.78 978.532C1058.81 981.566 1047.54 982.866 1025.01 985.032C1003.34 999.332 992.943 1006.27 971.276 1019.7C946.576 1020.13 934.009 1020.13 909.309 1019.27C887.209 1030.97 876.376 1036.6 854.276 1047.87C830.009 1045.7 817.443 1044.4 793.176 1040.93C771.076 1050.47 759.809 1054.8 737.276 1063.47C713.443 1058.7 701.309 1056.1 677.476 1050.47C654.943 1057.83 644.109 1060.87 621.576 1067.37C598.176 1060.43 586.476 1056.53 563.509 1048.73C540.976 1053.5 530.143 1056.1 507.609 1060C485.076 1050.9 473.376 1046.13 450.843 1035.73C428.743 1038.33 417.476 1039.63 395.376 1041.8C373.276 1030.53 362.443 1024.47 340.776 1012.33C320.843 1012.77 310.876 1013.2 291.376 1012.77C287.043 1003.23 285.309 998.033 281.409 988.066Z" fill="#FFFF8D"/>
<path d="M275.342 1096.4C298.742 1095.97 310.876 1095.53 334.709 1094.67C356.376 1106.37 367.642 1112 389.742 1122.4C411.409 1119.8 422.242 1118.5 443.909 1115.03C466.442 1124.57 477.709 1128.9 500.676 1137.57C522.342 1132.8 533.176 1130.63 555.276 1125C578.676 1132.37 590.376 1135.83 613.776 1142.33C635.442 1135.4 646.276 1131.93 667.942 1124.57C691.776 1129.77 703.909 1131.93 727.742 1136.27C749.409 1127.17 760.242 1122.83 781.476 1112.87C805.742 1115.47 817.876 1116.77 842.142 1118.5C863.376 1107.23 874.209 1101.6 895.009 1089.47C919.709 1089.47 931.842 1089.47 956.542 1088.6C977.342 1075.17 987.742 1068.23 1008.11 1054.37C1035.41 1051.33 1049.28 1049.6 1076.58 1045.27C1075.28 1055.23 1074.84 1060.43 1073.98 1070.83C1051.01 1074.3 1039.74 1076.03 1016.78 1078.63C995.976 1092.93 985.142 1100.3 964.342 1113.73C939.209 1114.6 926.642 1115.03 901.942 1114.6C880.276 1126.73 869.875 1132.37 848.209 1144.07C823.509 1142.33 811.376 1141.47 786.676 1138.43C765.009 1148.4 754.176 1153.17 732.076 1162.27C707.809 1158.37 695.676 1155.77 671.842 1150.57C649.742 1158.37 638.909 1161.83 616.809 1168.77C592.976 1162.27 581.276 1158.8 557.876 1151.43C535.776 1157.07 524.942 1159.67 502.842 1164C479.876 1155.33 468.176 1150.57 445.642 1141.03C423.542 1144.5 412.709 1145.8 390.609 1148.4C368.076 1137.57 357.242 1131.93 335.142 1120.23C315.642 1121.1 305.676 1121.53 286.176 1121.97C281.842 1112 279.676 1106.8 275.342 1096.4Z" fill="#FFFF8D"/>
<path d="M268.842 1204.3C292.242 1203.43 303.942 1202.57 327.342 1200.83C349.442 1212.1 360.709 1217.3 383.242 1227.27C404.476 1224.23 415.309 1222.5 436.976 1218.6C459.942 1227.7 471.642 1232.03 494.609 1239.83C515.842 1234.63 526.676 1232.03 548.342 1225.97C571.742 1232.9 583.876 1235.93 607.276 1241.57C628.509 1234.2 639.342 1230.3 660.576 1222.5C684.842 1226.83 696.542 1229 720.809 1232.47C742.042 1222.93 752.442 1218.17 773.676 1208.2C798.376 1210.37 810.509 1211.23 835.209 1212.53C856.009 1201.27 866.409 1195.2 887.209 1183.07C911.909 1182.63 924.476 1182.2 949.176 1180.9C969.542 1167.47 979.509 1160.53 999.442 1146.23C1027.18 1142.77 1041.04 1140.6 1068.34 1135.83C1067.48 1145.8 1067.48 1151 1066.61 1160.97C1043.64 1164.87 1032.38 1166.6 1009.41 1169.63C989.042 1184.37 978.642 1191.3 958.276 1205.17C933.142 1206.47 920.576 1206.9 895.442 1207.33C874.642 1219.9 863.809 1225.97 843.009 1237.23C818.309 1235.93 805.742 1235.5 781.042 1233.33C759.809 1243.73 748.976 1248.5 727.742 1258.03C703.042 1254.57 690.909 1252.4 666.642 1248.07C644.976 1256.3 634.142 1260.2 612.476 1267.57C588.642 1261.93 576.509 1258.47 552.676 1251.97C531.009 1258.03 520.176 1260.63 498.509 1265.83C475.109 1257.6 463.409 1253.7 440.009 1244.6C418.342 1248.5 407.509 1250.23 385.842 1253.27C362.876 1242.87 351.609 1237.67 329.509 1226.4C310.009 1228.13 300.476 1228.57 280.976 1229.43C276.209 1219.47 273.609 1214.27 268.842 1204.3Z" fill="#FFFF8D"/>
<path d="M262.776 1310.9C285.743 1309.17 297.443 1308.3 320.843 1305.7C343.376 1316.1 354.643 1321.3 377.609 1330.83C398.843 1327.37 409.243 1325.2 430.476 1320.87C453.876 1329.1 465.576 1333.43 488.976 1340.8C510.209 1335.17 520.609 1332.13 541.409 1325.63C565.243 1331.7 577.376 1334.73 601.209 1339.93C622.009 1332.13 632.409 1328.23 653.643 1319.57C677.909 1323.47 690.043 1325.2 714.743 1328.23C735.543 1318.27 745.509 1313.5 766.309 1303.1C791.009 1304.83 803.576 1305.27 828.276 1306.13C848.643 1294.43 858.609 1288.37 878.976 1275.8C904.109 1274.93 916.242 1274.5 941.376 1272.77C960.876 1258.9 970.843 1251.97 990.343 1237.67C1018.08 1233.77 1031.94 1231.6 1059.68 1226.4C1059.24 1236.37 1059.24 1241.13 1058.81 1251.1C1035.84 1255.43 1024.58 1257.17 1001.61 1260.63C981.676 1275.37 971.709 1282.73 951.776 1296.6C926.643 1298.77 913.643 1299.2 888.509 1300.07C868.143 1312.63 857.742 1319.13 837.376 1330.83C812.242 1330.4 799.676 1329.97 774.543 1328.23C753.743 1339.07 743.343 1343.83 722.543 1353.8C697.843 1350.77 685.276 1349.03 660.576 1345.13C639.343 1353.8 628.943 1357.7 607.709 1365.5C583.443 1360.3 571.309 1357.27 547.043 1351.2C525.809 1357.7 514.976 1360.73 493.743 1366.37C469.909 1359 458.209 1355.1 434.376 1346.43C413.143 1350.77 402.309 1352.93 381.076 1356.4C358.109 1346.87 346.409 1341.67 323.443 1331.27C304.376 1333.43 294.843 1334.3 275.776 1335.6C270.576 1326.07 267.976 1320.87 262.776 1310.9Z" fill="#FFFF8D"/>
<path d="M436.542 947.765C436.542 947.765 459.942 1034 640.642 1055.67C821.776 1076.9 823.509 962.932 783.642 898.799C743.776 834.665 468.609 850.265 439.142 881.032C409.676 911.799 436.542 947.765 436.542 947.765Z" fill="white"/>
</g>
<path d="M277.076 1466.03L257.576 1305.27" stroke="#544D4D" stroke-width="13" stroke-miterlimit="10" stroke-linecap="round" stroke-linejoin="round"/>
<path d="M1033.68 1250.67C1033.68 1250.67 1020.68 1282.3 1024.58 1313.93C1028.48 1345.57 1039.74 1391.93 1023.71 1466.03" stroke="#544D4D" stroke-width="13" stroke-miterlimit="10" stroke-linecap="round" stroke-linejoin="round"/>
<path d="M377.176 903.566C385.409 900.966 399.709 903.566 404.042 910.933C420.942 938.666 461.676 1019.7 478.576 1180.47C492.009 1306.13 471.642 1532.33 471.642 1532.33L51.3091 1512.4C51.3091 1512.4 63.8758 1298.77 100.709 1155.33C136.676 1016.23 231.142 953.833 377.176 903.566Z" fill="#755B7A"/>
<path d="M813.109 930C813.109 930 947.009 1181.77 908.009 1518.03H1197.48C1197.48 1518.03 1195.74 1289.67 1130.74 1144.93C1065.74 1000.2 838.243 919.167 838.243 919.167C838.243 919.167 823.943 926.1 813.109 930Z" fill="#755B7A"/>
<path d="M813.109 930.001L802.708 926.967C802.708 926.967 817.875 919.601 824.375 915.267L828.275 913.101C828.275 913.101 849.075 922.634 856.442 926.101C863.809 929.567 830.875 945.601 830.875 945.601C830.875 945.601 814.409 930.434 813.109 930.001Z" fill="#7E5D6D"/>
<path d="M473.809 1140.17C473.809 1140.17 459.076 1098.13 425.709 1060.87C394.942 1026.2 338.609 972.466 334.709 960.333C327.342 935.633 373.276 842.466 445.209 809.966C445.209 810.399 445.209 810.833 445.209 811.266C445.209 811.699 445.209 812.133 445.209 812.999C445.209 813.866 445.209 814.732 445.642 815.599C445.642 816.899 446.076 818.199 446.076 819.499C446.076 820.366 446.076 820.799 446.509 821.666C449.542 847.666 452.142 876.699 454.309 907.466V907.899C454.309 907.899 434.376 914.399 448.676 1013.63C452.576 1037.47 467.309 1079.93 473.809 1140.17Z" fill="#4B3C4F"/>
<path d="M888.942 1153.6C888.942 1153.6 859.909 1040.93 845.609 1004.97C831.309 969.433 804.442 929.133 803.142 926.966C820.042 919.166 835.209 909.199 848.642 897.499C862.076 885.799 872.909 874.099 882.009 862.399C892.842 874.533 957.409 947.333 964.342 987.199C972.142 1031.4 915.809 1050.47 888.942 1153.6Z" fill="#4B3C4F"/>
<path d="M745.802 526.549C755.216 527.849 762.491 517.883 759.068 508.349C757.356 503.149 754.36 498.383 749.653 495.349C735.104 486.249 680.759 485.383 652.088 506.183C626.841 525.249 703.01 520.483 745.802 526.549Z" fill="#423232"/>
<path d="M864.333 531.315C856.631 531.315 851.924 521.349 855.775 513.115C857.915 508.782 860.91 504.882 865.189 502.716C878.455 496.216 913.972 500.116 929.805 522.215C943.926 541.715 899.851 530.882 864.333 531.315Z" fill="#423232"/>
<path d="M730.824 581.15C703.437 567.283 660.218 577.683 660.218 577.683" stroke="#423232" stroke-width="13" stroke-miterlimit="10" stroke-linecap="round" stroke-linejoin="round"/>
<path d="M899.854 589.816C899.854 589.816 888.728 577.683 847.648 587.216" stroke="#423232" stroke-width="13" stroke-miterlimit="10" stroke-linecap="round" stroke-linejoin="round"/>
<path d="M800.184 776.042C800.618 790.342 779.384 826.742 738.218 809.842C698.784 793.808 687.084 718.408 743.418 754.375C772.884 773.008 790.651 776.042 800.184 776.042Z" fill="white"/>
<path d="M808.417 774.308C808.417 774.308 790.217 784.275 743.417 754.375C687.517 718.408 698.784 793.808 738.217 809.842C779.384 826.742 800.617 789.908 800.184 776.042" stroke="#423232" stroke-width="13" stroke-miterlimit="10" stroke-linecap="round" stroke-linejoin="round"/>
<path d="M705.284 765.208C705.284 765.208 734.751 784.708 743.418 782.974C752.518 781.674 751.217 794.241 792.384 795.541" stroke="#423232" stroke-width="13" stroke-miterlimit="10" stroke-linecap="round" stroke-linejoin="round"/>
<path d="M971.541 366.632C940.774 477.999 852.807 455.899 767.874 429.032C468.441 334.132 520.007 624.032 516.107 618.832C506.574 600.632 486.207 578.099 447.641 582.865C397.374 589.365 377.007 700.732 471.041 746.665C468.874 766.599 454.574 783.499 438.107 795.632C393.907 758.365 325.441 686.432 299.874 582.432C290.341 544.299 294.241 512.665 298.141 487.965C310.707 411.265 358.374 395.232 358.374 395.232C360.107 314.199 444.607 224.932 586.741 227.965C729.307 230.132 1002.31 255.265 971.541 366.632Z" fill="#423232"/>
<path d="M975.007 500.532C970.674 528.699 958.54 550.366 941.64 566.399C948.14 519.166 944.674 496.632 939.04 470.199C926.907 416.032 900.907 369.232 857.574 334.566C879.24 332.832 901.34 337.599 921.274 350.166C921.274 350.166 949.874 370.099 960.707 434.232C964.174 452.866 978.907 472.799 975.007 500.532Z" fill="#423232"/>
<path d="M621.407 228.4C621.407 228.4 786.074 164.267 844.141 185.5C892.241 203.267 874.907 252.667 874.907 252.667C874.907 252.667 957.241 231.867 1001.87 285.6C1046.51 339.333 994.941 409.1 965.474 434.667C965.474 434.667 1011.84 446.8 1007.07 486.233C1001.44 535.633 941.207 565.967 941.207 565.967C941.207 565.967 962.007 523.5 958.974 482.767C955.941 442.033 960.707 413 930.807 383.533C900.907 353.633 829.841 381.8 753.141 343.667C676.874 305.533 621.407 228.4 621.407 228.4Z" fill="#423232"/>
<path d="M477.159 636.126C477.159 636.126 442.492 630.926 445.092 679.459C446.392 704.159 446.392 717.592 445.959 724.526C445.525 729.292 448.559 733.626 452.892 735.359C458.092 737.526 463.725 735.359 466.325 730.159C470.225 723.226 474.559 713.692 474.559 705.892C474.559 692.892 488.425 681.192 488.425 681.192C488.425 681.192 475.859 670.359 477.159 636.126Z" fill="white"/>
<path d="M582.025 1471.59C578.558 1467.69 442.492 1234.99 462.858 1147.46C476.725 1087.23 458.525 1017.89 442.492 956.793C435.992 931.66 429.925 908.26 426.458 887.46C420.392 851.493 424.725 817.26 439.458 785.626C455.492 750.093 452.892 719.326 452.892 718.893L461.558 718.026C461.558 719.326 464.158 751.826 447.258 789.093C433.392 818.993 429.492 851.926 435.125 886.16C438.592 906.526 444.658 929.926 451.158 955.06C467.625 1017.03 485.825 1087.66 471.525 1150.06C452.458 1233.26 588.092 1465.96 588.958 1466.83L582.025 1471.59Z" fill="white"/>
<path d="M446.392 704.593C446.826 714.126 446.392 720.626 446.392 724.526C445.959 729.292 448.992 733.626 453.326 735.359C458.526 737.526 464.159 735.359 466.759 730.159C470.659 723.226 474.992 713.692 474.992 705.892C474.992 705.459 474.992 704.593 474.992 704.159C465.892 707.626 455.492 710.226 446.392 704.593Z" fill="#E5E5E5"/>
<path d="M854.159 992.759C851.125 1012.69 850.692 1044.33 849.825 1081.16C848.525 1152.23 806.492 1429.13 786.125 1472.89L778.325 1469.43C797.825 1426.96 839.859 1151.36 841.159 1081.16C842.025 1044.33 842.459 1012.26 845.492 991.459C851.992 947.692 847.225 914.759 844.625 900.892C845.925 899.592 847.225 898.725 848.525 897.425C849.825 896.559 850.692 895.259 851.992 894.392C854.592 905.659 861.959 941.625 854.159 992.759Z" fill="white"/>
</g>
</svg>
