<svg viewBox="0 0 940.231111111111 528.88">
    <rect width="940.231111111111" height="528.88" fill="#ffffff" id="bg" class="bg"></rect>
    <g>
        <g transform="translate(0.00,
                                0.00) rotate(270, 117.52888888888887, 117.52888888888887)"><svg
                xmlns="http://www.w3.org/2000/svg" id="Layer_1" data-name="Layer 1" viewBox="0 0 100 100"
                width="235.05777777777774" height="235.05777777777774">
                <path d="M100,100A50,50,0,0,0,0,100Z" fill="#8BC10D"></path>
            </svg></g>
        <g transform="translate(705.17,
                                0.00) rotate(180, 117.52888888888887, 117.52888888888887)"><svg
                xmlns="http://www.w3.org/2000/svg" id="Layer_1" data-name="Layer 1" viewBox="0 0 100 100"
                width="235.05777777777774" height="235.05777777777774">
                <path d="M100,100A50,50,0,0,0,0,100Z" fill="#8BC10D"></path>
            </svg></g>
    </g>
    <g>
        <g transform="translate(235.06,
                                470.12) rotate(180, 117.52888888888887, 117.52888888888887)"><svg
                xmlns="http://www.w3.org/2000/svg" id="Layer_1" data-name="Layer 1" viewBox="0 0 100 100"
                width="235.05777777777774" height="235.05777777777774">
                <rect width="80" height="80" fill="#C5F888"></rect>
                <circle cx="22.303" cy="22.119" r="2.119" fill="#D6E635"></circle>
                <circle cx="33.1" cy="22.119" r="2.119" fill="#D6E635"></circle>
                <circle cx="43.897" cy="22.119" r="2.119" fill="#D6E635"></circle>
                <circle cx="54.693" cy="22.119" r="2.119" fill="#D6E635"></circle>
                <circle cx="65.49" cy="22.119" r="2.119" fill="#D6E635"></circle>
                <circle cx="76.287" cy="22.119" r="2.119" fill="#D6E635"></circle>
                <circle cx="87.084" cy="22.119" r="2.119" fill="#D6E635"></circle>
                <circle cx="97.881" cy="22.119" r="2.119" fill="#D6E635"></circle>
                <circle cx="22.303" cy="32.942" r="2.119" fill="#D6E635"></circle>
                <circle cx="33.1" cy="32.942" r="2.119" fill="#D6E635"></circle>
                <circle cx="43.897" cy="32.942" r="2.119" fill="#D6E635"></circle>
                <circle cx="54.693" cy="32.942" r="2.119" fill="#D6E635"></circle>
                <circle cx="65.49" cy="32.942" r="2.119" fill="#D6E635"></circle>
                <circle cx="76.287" cy="32.942" r="2.119" fill="#D6E635"></circle>
                <circle cx="87.084" cy="32.942" r="2.119" fill="#D6E635"></circle>
                <circle cx="97.881" cy="32.942" r="2.119" fill="#D6E635"></circle>
                <circle cx="22.303" cy="43.765" r="2.119" fill="#D6E635"></circle>
                <circle cx="33.1" cy="43.765" r="2.119" fill="#D6E635"></circle>
                <circle cx="43.897" cy="43.765" r="2.119" fill="#D6E635"></circle>
                <circle cx="54.693" cy="43.765" r="2.119" fill="#D6E635"></circle>
                <circle cx="65.49" cy="43.765" r="2.119" fill="#D6E635"></circle>
                <circle cx="76.287" cy="43.765" r="2.119" fill="#D6E635"></circle>
                <circle cx="87.084" cy="43.765" r="2.119" fill="#D6E635"></circle>
                <circle cx="97.881" cy="43.765" r="2.119" fill="#D6E635"></circle>
                <circle cx="22.303" cy="54.588" r="2.119" fill="#D6E635"></circle>
                <circle cx="33.1" cy="54.588" r="2.119" fill="#D6E635"></circle>
                <circle cx="43.897" cy="54.588" r="2.119" fill="#D6E635"></circle>
                <circle cx="54.693" cy="54.588" r="2.119" fill="#D6E635"></circle>
                <circle cx="65.49" cy="54.588" r="2.119" fill="#D6E635"></circle>
                <circle cx="76.287" cy="54.588" r="2.119" fill="#D6E635"></circle>
                <circle cx="87.084" cy="54.588" r="2.119" fill="#D6E635"></circle>
                <circle cx="97.881" cy="54.588" r="2.119" fill="#D6E635"></circle>
                <circle cx="22.303" cy="65.412" r="2.119" fill="#D6E635"></circle>
                <circle cx="33.1" cy="65.412" r="2.119" fill="#D6E635"></circle>
                <circle cx="43.897" cy="65.412" r="2.119" fill="#D6E635"></circle>
                <circle cx="54.693" cy="65.412" r="2.119" fill="#D6E635"></circle>
                <circle cx="65.49" cy="65.412" r="2.119" fill="#D6E635"></circle>
                <circle cx="76.287" cy="65.412" r="2.119" fill="#D6E635"></circle>
                <circle cx="87.084" cy="65.412" r="2.119" fill="#D6E635"></circle>
                <circle cx="97.881" cy="65.412" r="2.119" fill="#D6E635"></circle>
                <circle cx="22.303" cy="76.235" r="2.119" fill="#D6E635"></circle>
                <circle cx="33.1" cy="76.235" r="2.119" fill="#D6E635"></circle>
                <circle cx="43.897" cy="76.235" r="2.119" fill="#D6E635"></circle>
                <circle cx="54.693" cy="76.235" r="2.119" fill="#D6E635"></circle>
                <circle cx="65.49" cy="76.235" r="2.119" fill="#D6E635"></circle>
                <circle cx="76.287" cy="76.235" r="2.119" fill="#D6E635"></circle>
                <circle cx="87.084" cy="76.235" r="2.119" fill="#D6E635"></circle>
                <circle cx="97.881" cy="76.235" r="2.119" fill="#D6E635"></circle>
                <circle cx="22.303" cy="87.058" r="2.119" fill="#D6E635"></circle>
                <circle cx="33.1" cy="87.058" r="2.119" fill="#D6E635"></circle>
                <circle cx="43.897" cy="87.058" r="2.119" fill="#D6E635"></circle>
                <circle cx="54.693" cy="87.058" r="2.119" fill="#D6E635"></circle>
                <circle cx="65.49" cy="87.058" r="2.119" fill="#D6E635"></circle>
                <circle cx="76.287" cy="87.058" r="2.119" fill="#D6E635"></circle>
                <circle cx="87.084" cy="87.058" r="2.119" fill="#D6E635"></circle>
                <circle cx="97.881" cy="87.058" r="2.119" fill="#D6E635"></circle>
                <circle cx="22.303" cy="97.881" r="2.119" fill="#D6E635"></circle>
                <circle cx="33.1" cy="97.881" r="2.119" fill="#D6E635"></circle>
                <circle cx="43.897" cy="97.881" r="2.119" fill="#D6E635"></circle>
                <circle cx="54.693" cy="97.881" r="2.119" fill="#D6E635"></circle>
                <circle cx="65.49" cy="97.881" r="2.119" fill="#D6E635"></circle>
                <circle cx="76.287" cy="97.881" r="2.119" fill="#D6E635"></circle>
                <circle cx="87.084" cy="97.881" r="2.119" fill="#D6E635"></circle>
                <circle cx="97.881" cy="97.881" r="2.119" fill="#D6E635"></circle>
            </svg></g>
        <g transform="translate(235.06,
                                705.17) rotate(90, 117.52888888888887, 117.52888888888887)"><svg
                xmlns="http://www.w3.org/2000/svg" id="Layer_1" data-name="Layer 1" viewBox="0 0 100 100"
                width="235.05777777777774" height="235.05777777777774">
                <rect width="80" height="80" fill="#C5F888"></rect>
                <circle cx="22.303" cy="22.119" r="2.119" fill="#D6E635"></circle>
                <circle cx="33.1" cy="22.119" r="2.119" fill="#D6E635"></circle>
                <circle cx="43.897" cy="22.119" r="2.119" fill="#D6E635"></circle>
                <circle cx="54.693" cy="22.119" r="2.119" fill="#D6E635"></circle>
                <circle cx="65.49" cy="22.119" r="2.119" fill="#D6E635"></circle>
                <circle cx="76.287" cy="22.119" r="2.119" fill="#D6E635"></circle>
                <circle cx="87.084" cy="22.119" r="2.119" fill="#D6E635"></circle>
                <circle cx="97.881" cy="22.119" r="2.119" fill="#D6E635"></circle>
                <circle cx="22.303" cy="32.942" r="2.119" fill="#D6E635"></circle>
                <circle cx="33.1" cy="32.942" r="2.119" fill="#D6E635"></circle>
                <circle cx="43.897" cy="32.942" r="2.119" fill="#D6E635"></circle>
                <circle cx="54.693" cy="32.942" r="2.119" fill="#D6E635"></circle>
                <circle cx="65.49" cy="32.942" r="2.119" fill="#D6E635"></circle>
                <circle cx="76.287" cy="32.942" r="2.119" fill="#D6E635"></circle>
                <circle cx="87.084" cy="32.942" r="2.119" fill="#D6E635"></circle>
                <circle cx="97.881" cy="32.942" r="2.119" fill="#D6E635"></circle>
                <circle cx="22.303" cy="43.765" r="2.119" fill="#D6E635"></circle>
                <circle cx="33.1" cy="43.765" r="2.119" fill="#D6E635"></circle>
                <circle cx="43.897" cy="43.765" r="2.119" fill="#D6E635"></circle>
                <circle cx="54.693" cy="43.765" r="2.119" fill="#D6E635"></circle>
                <circle cx="65.49" cy="43.765" r="2.119" fill="#D6E635"></circle>
                <circle cx="76.287" cy="43.765" r="2.119" fill="#D6E635"></circle>
                <circle cx="87.084" cy="43.765" r="2.119" fill="#D6E635"></circle>
                <circle cx="97.881" cy="43.765" r="2.119" fill="#D6E635"></circle>
                <circle cx="22.303" cy="54.588" r="2.119" fill="#D6E635"></circle>
                <circle cx="33.1" cy="54.588" r="2.119" fill="#D6E635"></circle>
                <circle cx="43.897" cy="54.588" r="2.119" fill="#D6E635"></circle>
                <circle cx="54.693" cy="54.588" r="2.119" fill="#D6E635"></circle>
                <circle cx="65.49" cy="54.588" r="2.119" fill="#D6E635"></circle>
                <circle cx="76.287" cy="54.588" r="2.119" fill="#D6E635"></circle>
                <circle cx="87.084" cy="54.588" r="2.119" fill="#D6E635"></circle>
                <circle cx="97.881" cy="54.588" r="2.119" fill="#D6E635"></circle>
                <circle cx="22.303" cy="65.412" r="2.119" fill="#D6E635"></circle>
                <circle cx="33.1" cy="65.412" r="2.119" fill="#D6E635"></circle>
                <circle cx="43.897" cy="65.412" r="2.119" fill="#D6E635"></circle>
                <circle cx="54.693" cy="65.412" r="2.119" fill="#D6E635"></circle>
                <circle cx="65.49" cy="65.412" r="2.119" fill="#D6E635"></circle>
                <circle cx="76.287" cy="65.412" r="2.119" fill="#D6E635"></circle>
                <circle cx="87.084" cy="65.412" r="2.119" fill="#D6E635"></circle>
                <circle cx="97.881" cy="65.412" r="2.119" fill="#D6E635"></circle>
                <circle cx="22.303" cy="76.235" r="2.119" fill="#D6E635"></circle>
                <circle cx="33.1" cy="76.235" r="2.119" fill="#D6E635"></circle>
                <circle cx="43.897" cy="76.235" r="2.119" fill="#D6E635"></circle>
                <circle cx="54.693" cy="76.235" r="2.119" fill="#D6E635"></circle>
                <circle cx="65.49" cy="76.235" r="2.119" fill="#D6E635"></circle>
                <circle cx="76.287" cy="76.235" r="2.119" fill="#D6E635"></circle>
                <circle cx="87.084" cy="76.235" r="2.119" fill="#D6E635"></circle>
                <circle cx="97.881" cy="76.235" r="2.119" fill="#D6E635"></circle>
                <circle cx="22.303" cy="87.058" r="2.119" fill="#D6E635"></circle>
                <circle cx="33.1" cy="87.058" r="2.119" fill="#D6E635"></circle>
                <circle cx="43.897" cy="87.058" r="2.119" fill="#D6E635"></circle>
                <circle cx="54.693" cy="87.058" r="2.119" fill="#D6E635"></circle>
                <circle cx="65.49" cy="87.058" r="2.119" fill="#D6E635"></circle>
                <circle cx="76.287" cy="87.058" r="2.119" fill="#D6E635"></circle>
                <circle cx="87.084" cy="87.058" r="2.119" fill="#D6E635"></circle>
                <circle cx="97.881" cy="87.058" r="2.119" fill="#D6E635"></circle>
                <circle cx="22.303" cy="97.881" r="2.119" fill="#D6E635"></circle>
                <circle cx="33.1" cy="97.881" r="2.119" fill="#D6E635"></circle>
                <circle cx="43.897" cy="97.881" r="2.119" fill="#D6E635"></circle>
                <circle cx="54.693" cy="97.881" r="2.119" fill="#D6E635"></circle>
                <circle cx="65.49" cy="97.881" r="2.119" fill="#D6E635"></circle>
                <circle cx="76.287" cy="97.881" r="2.119" fill="#D6E635"></circle>
                <circle cx="87.084" cy="97.881" r="2.119" fill="#D6E635"></circle>
                <circle cx="97.881" cy="97.881" r="2.119" fill="#D6E635"></circle>
            </svg></g>
        <g transform="translate(705.17,
                                470.12) rotate(90, 117.52888888888887, 117.52888888888887)"><svg
                xmlns="http://www.w3.org/2000/svg" id="Layer_1" data-name="Layer 1" viewBox="0 0 100 100"
                width="235.05777777777774" height="235.05777777777774">
                <path d="M100,100A50,50,0,0,0,0,100Z" fill="#8BC10D"></path>
            </svg></g>
        <g transform="translate(705.17,
                                705.17) rotate(0, 117.52888888888887, 117.52888888888887)"><svg
                xmlns="http://www.w3.org/2000/svg" id="Layer_1" data-name="Layer 1" viewBox="0 0 100 100"
                width="235.05777777777774" height="235.05777777777774">
                <rect width="80" height="80" fill="#C5F888"></rect>
                <circle cx="22.303" cy="22.119" r="2.119" fill="#D6E635"></circle>
                <circle cx="33.1" cy="22.119" r="2.119" fill="#D6E635"></circle>
                <circle cx="43.897" cy="22.119" r="2.119" fill="#D6E635"></circle>
                <circle cx="54.693" cy="22.119" r="2.119" fill="#D6E635"></circle>
                <circle cx="65.49" cy="22.119" r="2.119" fill="#D6E635"></circle>
                <circle cx="76.287" cy="22.119" r="2.119" fill="#D6E635"></circle>
                <circle cx="87.084" cy="22.119" r="2.119" fill="#D6E635"></circle>
                <circle cx="97.881" cy="22.119" r="2.119" fill="#D6E635"></circle>
                <circle cx="22.303" cy="32.942" r="2.119" fill="#D6E635"></circle>
                <circle cx="33.1" cy="32.942" r="2.119" fill="#D6E635"></circle>
                <circle cx="43.897" cy="32.942" r="2.119" fill="#D6E635"></circle>
                <circle cx="54.693" cy="32.942" r="2.119" fill="#D6E635"></circle>
                <circle cx="65.49" cy="32.942" r="2.119" fill="#D6E635"></circle>
                <circle cx="76.287" cy="32.942" r="2.119" fill="#D6E635"></circle>
                <circle cx="87.084" cy="32.942" r="2.119" fill="#D6E635"></circle>
                <circle cx="97.881" cy="32.942" r="2.119" fill="#D6E635"></circle>
                <circle cx="22.303" cy="43.765" r="2.119" fill="#D6E635"></circle>
                <circle cx="33.1" cy="43.765" r="2.119" fill="#D6E635"></circle>
                <circle cx="43.897" cy="43.765" r="2.119" fill="#D6E635"></circle>
                <circle cx="54.693" cy="43.765" r="2.119" fill="#D6E635"></circle>
                <circle cx="65.49" cy="43.765" r="2.119" fill="#D6E635"></circle>
                <circle cx="76.287" cy="43.765" r="2.119" fill="#D6E635"></circle>
                <circle cx="87.084" cy="43.765" r="2.119" fill="#D6E635"></circle>
                <circle cx="97.881" cy="43.765" r="2.119" fill="#D6E635"></circle>
                <circle cx="22.303" cy="54.588" r="2.119" fill="#D6E635"></circle>
                <circle cx="33.1" cy="54.588" r="2.119" fill="#D6E635"></circle>
                <circle cx="43.897" cy="54.588" r="2.119" fill="#D6E635"></circle>
                <circle cx="54.693" cy="54.588" r="2.119" fill="#D6E635"></circle>
                <circle cx="65.49" cy="54.588" r="2.119" fill="#D6E635"></circle>
                <circle cx="76.287" cy="54.588" r="2.119" fill="#D6E635"></circle>
                <circle cx="87.084" cy="54.588" r="2.119" fill="#D6E635"></circle>
                <circle cx="97.881" cy="54.588" r="2.119" fill="#D6E635"></circle>
                <circle cx="22.303" cy="65.412" r="2.119" fill="#D6E635"></circle>
                <circle cx="33.1" cy="65.412" r="2.119" fill="#D6E635"></circle>
                <circle cx="43.897" cy="65.412" r="2.119" fill="#D6E635"></circle>
                <circle cx="54.693" cy="65.412" r="2.119" fill="#D6E635"></circle>
                <circle cx="65.49" cy="65.412" r="2.119" fill="#D6E635"></circle>
                <circle cx="76.287" cy="65.412" r="2.119" fill="#D6E635"></circle>
                <circle cx="87.084" cy="65.412" r="2.119" fill="#D6E635"></circle>
                <circle cx="97.881" cy="65.412" r="2.119" fill="#D6E635"></circle>
                <circle cx="22.303" cy="76.235" r="2.119" fill="#D6E635"></circle>
                <circle cx="33.1" cy="76.235" r="2.119" fill="#D6E635"></circle>
                <circle cx="43.897" cy="76.235" r="2.119" fill="#D6E635"></circle>
                <circle cx="54.693" cy="76.235" r="2.119" fill="#D6E635"></circle>
                <circle cx="65.49" cy="76.235" r="2.119" fill="#D6E635"></circle>
                <circle cx="76.287" cy="76.235" r="2.119" fill="#D6E635"></circle>
                <circle cx="87.084" cy="76.235" r="2.119" fill="#D6E635"></circle>
                <circle cx="97.881" cy="76.235" r="2.119" fill="#D6E635"></circle>
                <circle cx="22.303" cy="87.058" r="2.119" fill="#D6E635"></circle>
                <circle cx="33.1" cy="87.058" r="2.119" fill="#D6E635"></circle>
                <circle cx="43.897" cy="87.058" r="2.119" fill="#D6E635"></circle>
                <circle cx="54.693" cy="87.058" r="2.119" fill="#D6E635"></circle>
                <circle cx="65.49" cy="87.058" r="2.119" fill="#D6E635"></circle>
                <circle cx="76.287" cy="87.058" r="2.119" fill="#D6E635"></circle>
                <circle cx="87.084" cy="87.058" r="2.119" fill="#D6E635"></circle>
                <circle cx="97.881" cy="87.058" r="2.119" fill="#D6E635"></circle>
                <circle cx="22.303" cy="97.881" r="2.119" fill="#D6E635"></circle>
                <circle cx="33.1" cy="97.881" r="2.119" fill="#D6E635"></circle>
                <circle cx="43.897" cy="97.881" r="2.119" fill="#D6E635"></circle>
                <circle cx="54.693" cy="97.881" r="2.119" fill="#D6E635"></circle>
                <circle cx="65.49" cy="97.881" r="2.119" fill="#D6E635"></circle>
                <circle cx="76.287" cy="97.881" r="2.119" fill="#D6E635"></circle>
                <circle cx="87.084" cy="97.881" r="2.119" fill="#D6E635"></circle>
                <circle cx="97.881" cy="97.881" r="2.119" fill="#D6E635"></circle>
            </svg></g>
    </g>
</svg>