<svg width="1300" height="1300" viewBox="0 0 1300 1300" fill="none" xmlns="http://www.w3.org/2000/svg">
<path d="M650 1300C290.71 1300 0 1008.86 0 650C0 290.71 291.141 0 650 0C1009.29 0 1300 291.141 1300 650C1300.43 1009.29 1009.29 1300 650 1300Z" fill="#B5E2C9"/>
<mask id="mask0_416_1047" style="mask-type:alpha" maskUnits="userSpaceOnUse" x="0" y="0" width="1301" height="1300">
<path d="M650 1300C290.71 1300 0 1008.86 0 650C0 290.71 291.141 0 650 0C1009.29 0 1300 291.141 1300 650C1300.43 1009.29 1009.29 1300 650 1300Z" fill="#F7C0B5"/>
</mask>
<g mask="url(#mask0_416_1047)">
<path d="M1015.73 1197.33C1012.7 1199.5 1009.23 1201.67 1006.2 1203.83C1002.73 1206 999.698 1208.17 996.231 1209.9C993.198 1211.63 990.598 1213.37 987.564 1215.1C987.131 1215.53 986.698 1215.53 986.264 1215.97C976.298 1222.03 965.898 1227.67 955.498 1232.87C952.464 1234.6 948.998 1236.33 945.964 1237.63C945.964 1237.63 945.531 1238.07 945.098 1238.07C941.631 1239.8 938.164 1241.53 934.698 1243.27C927.764 1246.73 920.398 1249.77 913.464 1252.8C909.998 1254.53 906.098 1255.83 902.631 1257.13C899.164 1258.43 895.264 1260.17 891.798 1261.47C888.331 1262.77 884.431 1264.5 880.964 1265.8C880.964 1265.8 880.964 1265.8 880.531 1265.8C877.064 1267.1 873.164 1268.4 869.698 1269.7C861.898 1272.3 853.664 1274.9 845.864 1277.5C843.264 1278.37 840.231 1279.23 837.631 1280.1C829.398 1282.7 821.164 1284.87 812.931 1286.6C809.898 1287.47 806.864 1287.9 803.398 1288.77C795.598 1290.5 787.364 1292.23 779.564 1293.97C777.831 1294.4 776.531 1294.4 774.798 1294.83C772.198 1295.27 769.164 1295.7 766.564 1296.13C762.664 1296.57 759.198 1297.43 755.298 1297.87C753.564 1298.3 751.831 1298.3 750.098 1298.73C747.931 1299.17 745.331 1299.6 742.731 1299.6C735.798 1300.47 728.431 1301.33 721.498 1302.2C719.331 1302.63 716.731 1302.63 714.564 1303.07H714.131C711.098 1303.5 708.064 1303.5 705.031 1303.93C701.998 1304.37 698.964 1304.37 695.931 1304.37C694.198 1304.37 692.031 1304.8 690.298 1304.8C686.831 1304.8 683.798 1305.23 680.764 1305.23C676.431 1305.23 672.531 1305.67 668.198 1305.67C663.864 1305.67 659.964 1305.67 655.631 1305.67C652.598 1305.67 649.564 1305.67 646.531 1305.67C464.098 1303.07 299.431 1225.5 182.431 1102.43C182.431 1102.43 182.431 1102 181.998 1102C195.431 1075.57 245.264 1027.9 297.264 988.466C363.131 938.632 456.298 907.866 456.298 907.866C456.298 907.866 517.398 897.899 744.031 945.132C916.931 981.532 990.598 1129.3 1015.73 1197.33Z" fill="#FEE4BF"/>
<path d="M792.131 1065.16C783.031 1109.8 724.098 1136.23 624.864 1096.36C503.098 1046.96 456.298 907.865 456.298 907.865C449.798 808.198 434.631 722.831 434.631 722.831C575.464 710.698 741.864 875.365 741.864 875.365L760.931 956.831C762.664 963.765 766.131 969.831 771.331 974.165C780.431 989.765 798.198 1036.56 792.131 1065.16Z" fill="#FEE4BF"/>
<path d="M771.331 974.599C688.564 970.266 627.464 958.133 562.031 840.699C617.498 889.666 682.931 908.299 751.831 916.966L760.931 956.832C762.664 964.199 766.131 970.266 771.331 974.599Z" fill="#EFBDA5"/>
<path d="M942.498 452.431C950.298 488.831 954.198 518.298 932.964 615.365C911.731 712.431 952.464 809.498 850.198 898.331C781.298 958.131 660.831 969.398 564.631 903.965C532.131 881.865 502.231 851.098 477.964 810.798C458.898 779.165 436.798 749.265 412.098 721.965C377.864 684.698 336.698 609.731 357.064 477.131C389.998 261.332 603.631 236.632 729.731 260.465C855.831 284.298 921.264 356.231 942.498 452.431Z" fill="#FEE4BF"/>
<path d="M527.798 621.865C527.798 621.865 514.364 556.865 451.098 564.665C396.498 571.598 377.431 702.465 501.364 738.865" fill="#FEE4BF"/>
<path d="M497.464 679.499C497.464 679.499 481.864 669.532 483.598 652.199C486.198 631.832 483.598 619.265 474.064 615.365C450.231 605.399 445.464 633.132 446.331 636.599" stroke="#423232" stroke-width="13" stroke-miterlimit="10" stroke-linecap="round" stroke-linejoin="round"/>
<path d="M828.098 721.531C828.098 721.531 844.564 722.398 860.164 703.765C868.831 693.365 876.198 680.365 871.431 676.465C866.664 672.131 788.231 684.265 783.031 694.665C777.831 705.065 808.164 721.531 828.098 721.531Z" fill="#EFBDA5"/>
<path d="M841.098 575.932C841.098 575.932 841.964 617.099 868.397 663.032C880.097 683.399 862.331 716.765 823.764 722.399" stroke="#423232" stroke-width="13" stroke-miterlimit="10" stroke-linecap="round" stroke-linejoin="round"/>
<path opacity="0.42" d="M606.231 743.631C630.881 743.631 650.864 727.14 650.864 706.797C650.864 686.455 630.881 669.964 606.231 669.964C581.581 669.964 561.598 686.455 561.598 706.797C561.598 727.14 581.581 743.631 606.231 743.631Z" fill="#F2A5B2"/>
<path opacity="0.42" d="M926.031 670.832C924.731 695.098 925.164 718.932 923.431 742.765C904.364 738.432 890.498 724.132 890.498 707.232C890.498 689.032 905.664 674.298 926.031 670.832Z" fill="#F2A5B2"/>
<path d="M1158.82 1466.34H63.3557C63.3557 1466.34 68.1224 1264.41 135.722 1121.84C185.556 1016.11 313.822 955.874 403.089 925.107C423.022 918.174 441.222 912.974 455.956 909.074C460.722 922.074 508.822 1049.47 624.089 1096.27C723.322 1136.57 782.256 1109.71 791.356 1065.07C796.989 1036.47 779.222 989.674 770.122 974.507C764.922 970.174 761.456 963.674 759.722 957.174L756.256 942.874C764.056 941.14 771.422 938.974 779.222 936.807C783.122 937.674 787.022 938.54 790.922 939.407C846.822 952.84 929.589 985.34 1026.66 1067.24C1138.89 1160.84 1158.82 1466.34 1158.82 1466.34Z" fill="#FFDE55"/>
<path d="M806.956 1182.94C791.789 1187.27 738.922 1132.24 728.089 1122.71C718.122 1133.97 647.922 1213.27 613.256 1208.07C575.122 1202.44 477.622 1137.01 428.222 1034.31C400.922 977.974 400.056 943.74 403.089 925.107C404.389 916.44 406.989 910.807 408.289 907.774C412.622 897.807 443.822 859.24 451.622 859.674V860.107C455.522 901.707 468.956 942.007 491.489 977.107C519.222 1020.01 562.989 1071.57 624.089 1096.27C723.322 1136.57 774.889 1096.71 783.556 1052.07C789.189 1023.47 779.222 989.674 770.122 974.507C764.922 970.174 761.456 963.674 759.722 957.174L756.256 942.874C764.056 941.14 771.422 938.974 779.222 936.807C781.389 935.94 783.989 935.507 786.156 934.64C787.456 936.374 789.189 938.107 790.489 939.84C808.689 960.64 827.756 989.24 838.156 1037.77C855.922 1115.34 823.856 1177.74 806.956 1182.94Z" fill="#423232"/>
<path d="M726.789 1120.11C726.789 1120.11 758.423 1138.31 757.556 1153.47C756.689 1168.64 765.789 1216.74 765.789 1216.74" stroke="#423232" stroke-width="13" stroke-miterlimit="10" stroke-linecap="round" stroke-linejoin="round"/>
<path d="M726.356 1177.74C732.1 1177.74 736.756 1173.08 736.756 1167.34C736.756 1161.6 732.1 1156.94 726.356 1156.94C720.612 1156.94 715.956 1161.6 715.956 1167.34C715.956 1173.08 720.612 1177.74 726.356 1177.74Z" fill="#423232"/>
<path d="M730.256 1218.47C735.999 1218.47 740.656 1213.82 740.656 1208.07C740.656 1202.33 735.999 1197.67 730.256 1197.67C724.512 1197.67 719.856 1202.33 719.856 1208.07C719.856 1213.82 724.512 1218.47 730.256 1218.47Z" fill="#423232"/>
<path d="M277.856 1466.34L258.356 1305.57" stroke="#544D4D" stroke-width="13" stroke-miterlimit="10" stroke-linecap="round" stroke-linejoin="round"/>
<path d="M1034.46 1250.97C1034.46 1250.97 1021.46 1282.61 1025.36 1314.24C1029.26 1345.87 1040.52 1392.24 1024.49 1466.34" stroke="#544D4D" stroke-width="13" stroke-miterlimit="10" stroke-linecap="round" stroke-linejoin="round"/>
<path d="M683.943 619.44C673.543 619.007 665.743 610.34 666.61 599.94L667.043 587.807C667.476 577.407 676.143 569.607 686.543 570.473C696.943 570.907 704.743 579.573 703.876 589.973L703.443 602.107C703.01 612.074 694.343 619.874 683.943 619.44Z" fill="#423232"/>
<path d="M866.376 625.94C856.842 625.506 849.476 617.273 849.909 607.74L850.343 596.473C850.776 586.94 859.009 579.573 868.542 580.006C878.076 580.44 885.443 588.673 885.009 598.206L884.576 609.473C884.143 619.006 875.909 626.373 866.376 625.94Z" fill="#423232"/>
<path d="M725.977 594.306C725.977 594.306 714.71 578.273 695.21 575.239C679.177 572.639 661.41 580.439 658.81 589.539" stroke="#423232" stroke-width="13" stroke-miterlimit="10" stroke-linecap="round" stroke-linejoin="round"/>
<path d="M853.81 598.207C853.81 598.207 853.81 584.341 873.743 584.341C890.21 584.341 897.143 599.507 897.143 599.507" stroke="#423232" stroke-width="13" stroke-miterlimit="10" stroke-linecap="round" stroke-linejoin="round"/>
<path d="M743.742 524.539C752.842 527.572 761.942 519.339 760.209 509.372C759.342 504.172 757.176 498.972 752.842 495.072C739.842 483.372 686.109 472.973 653.609 488.139C625.009 502.006 702.142 510.672 743.742 524.539Z" fill="#423232"/>
<path d="M873.308 531.474C865.941 534.074 858.141 526.274 859.441 517.174C859.875 512.407 861.608 507.641 865.075 504.174C875.475 493.774 911.008 485.541 933.541 501.574C953.041 515.007 907.108 518.907 873.308 531.474Z" fill="#423232"/>
<path d="M812.331 773.797C801.497 778.564 796.297 769.031 779.397 777.264C767.264 782.897 760.764 784.631 746.031 775.964C736.497 769.897 724.797 778.564 713.531 762.097" stroke="#423232" stroke-width="13" stroke-miterlimit="10" stroke-linecap="round" stroke-linejoin="round"/>
<path d="M974.206 347.827C943.439 459.194 854.172 440.561 770.539 410.227C659.172 369.494 561.239 402.427 560.806 502.961C559.939 650.294 523.106 605.661 519.206 600.027C509.672 581.827 489.306 559.294 450.739 564.061C400.039 570.561 380.106 682.361 474.572 728.294C491.039 811.927 445.972 804.127 445.972 804.127C430.806 742.594 303.406 611.727 302.972 525.494C302.972 409.361 361.472 376.427 361.472 376.427C363.206 295.394 447.706 206.127 589.839 209.161C731.972 211.761 819.072 207.861 846.806 174.494C874.539 140.261 1004.97 236.461 974.206 347.827Z" fill="#423232"/>
<path d="M977.673 481.726C973.34 509.893 961.206 531.56 944.306 547.593C950.806 500.36 947.34 477.826 941.706 451.393C929.573 397.226 903.573 350.426 860.24 315.76C881.906 314.026 904.006 318.793 923.94 331.36C923.94 330.926 995.44 359.96 977.673 481.726Z" fill="#423232"/>
<path d="M749.233 669.067H648.266C621.833 669.067 600.599 647.834 600.599 621.4V580.234C600.599 553.8 621.833 532.567 648.266 532.567H749.233C775.666 532.567 796.899 553.8 796.899 580.234V621.4C796.899 647.834 775.233 669.067 749.233 669.067Z" stroke="#423232" stroke-width="13" stroke-miterlimit="10" stroke-linecap="round" stroke-linejoin="round"/>
<path d="M923.432 532.567H873.599C856.266 532.567 841.966 546.867 841.966 564.2V601.9C848.032 623.567 856.699 644.367 869.699 663C870.999 663 872.299 663.434 873.599 663.434H923.432C940.766 663.434 955.066 649.134 955.066 631.8V564.2C955.499 546.434 941.199 532.567 923.432 532.567Z" stroke="#423232" stroke-width="13" stroke-miterlimit="10" stroke-linecap="round" stroke-linejoin="round"/>
<path d="M796.899 572.001C811.633 570.268 830.266 568.968 845.866 570.701" stroke="#423232" stroke-width="13" stroke-miterlimit="10" stroke-linecap="round" stroke-linejoin="round"/>
<path d="M600.599 575.033L500.066 578.499" stroke="#423232" stroke-width="13" stroke-miterlimit="10" stroke-linecap="round" stroke-linejoin="round"/>
</g>
</svg>
