<svg width="1300" height="1300" viewBox="0 0 1300 1300" fill="none" xmlns="http://www.w3.org/2000/svg">
<path d="M650 1300C290.71 1300 0 1008.86 0 650C0 290.71 291.141 0 650 0C1009.29 0 1300 291.141 1300 650C1300.43 1009.29 1009.29 1300 650 1300Z" fill="#F4DA92"/>
<mask id="mask0_416_1194" style="mask-type:alpha" maskUnits="userSpaceOnUse" x="0" y="0" width="1301" height="1300">
<path d="M650 1300C290.71 1300 0 1008.86 0 650C0 290.71 291.141 0 650 0C1009.29 0 1300 291.141 1300 650C1300.43 1009.29 1009.29 1300 650 1300Z" fill="#F7C0B5"/>
</mask>
<g mask="url(#mask0_416_1194)">
<path d="M1015.73 1197.33C1012.7 1199.5 1009.23 1201.67 1006.2 1203.83C1002.73 1206 999.698 1208.17 996.231 1209.9C993.198 1211.63 990.598 1213.37 987.564 1215.1C987.131 1215.53 986.698 1215.53 986.264 1215.97C976.298 1222.03 965.898 1227.67 955.498 1232.87C952.464 1234.6 948.998 1236.33 945.964 1237.63C945.964 1237.63 945.531 1238.07 945.098 1238.07C941.631 1239.8 938.164 1241.53 934.698 1243.27C927.764 1246.73 920.398 1249.77 913.464 1252.8C909.998 1254.53 906.098 1255.83 902.631 1257.13C899.164 1258.43 895.264 1260.17 891.798 1261.47C888.331 1262.77 884.431 1264.5 880.964 1265.8C880.964 1265.8 880.964 1265.8 880.531 1265.8C877.064 1267.1 873.164 1268.4 869.698 1269.7C861.898 1272.3 853.664 1274.9 845.864 1277.5C843.264 1278.37 840.231 1279.23 837.631 1280.1C829.398 1282.7 821.164 1284.87 812.931 1286.6C809.898 1287.47 806.864 1287.9 803.398 1288.77C795.598 1290.5 787.364 1292.23 779.564 1293.97C777.831 1294.4 776.531 1294.4 774.798 1294.83C772.198 1295.27 769.164 1295.7 766.564 1296.13C762.664 1296.57 759.198 1297.43 755.298 1297.87C753.564 1298.3 751.831 1298.3 750.098 1298.73C747.931 1299.17 745.331 1299.6 742.731 1299.6C735.798 1300.47 728.431 1301.33 721.498 1302.2C719.331 1302.63 716.731 1302.63 714.564 1303.07H714.131C711.098 1303.5 708.064 1303.5 705.031 1303.93C701.998 1304.37 698.964 1304.37 695.931 1304.37C694.198 1304.37 692.031 1304.8 690.298 1304.8C686.831 1304.8 683.798 1305.23 680.764 1305.23C676.431 1305.23 672.531 1305.67 668.198 1305.67C663.864 1305.67 659.964 1305.67 655.631 1305.67C652.598 1305.67 649.564 1305.67 646.531 1305.67C464.098 1303.07 299.431 1225.5 182.431 1102.43C182.431 1102.43 182.431 1102 181.998 1102C195.431 1075.57 245.264 1027.9 297.264 988.466C363.131 938.632 456.298 907.866 456.298 907.866C456.298 907.866 517.398 897.899 744.031 945.132C916.931 981.532 990.598 1129.3 1015.73 1197.33Z" fill="#FEE4BF"/>
<path d="M792.131 1065.16C783.031 1109.8 724.098 1136.23 624.865 1096.36C503.098 1046.96 456.298 907.865 456.298 907.865C449.798 808.198 434.631 722.831 434.631 722.831C575.465 710.698 741.865 875.365 741.865 875.365L760.931 956.831C762.665 963.765 766.131 969.831 771.331 974.165C780.431 989.765 798.198 1036.56 792.131 1065.16Z" fill="#FEE4BF"/>
<path d="M771.331 974.599C688.564 970.266 627.464 958.133 562.031 840.699C617.498 889.666 682.931 908.299 751.831 916.966L760.931 956.832C762.664 964.199 766.131 970.266 771.331 974.599Z" fill="#EFBDA5"/>
<path d="M942.498 452.431C950.298 488.831 954.198 518.298 932.964 615.365C911.731 712.431 952.464 809.498 850.198 898.331C781.298 958.131 660.831 969.398 564.631 903.965C532.131 881.865 502.231 851.098 477.964 810.798C458.898 779.165 436.798 749.265 412.098 721.965C377.864 684.698 336.698 609.731 357.064 477.131C389.998 261.332 603.631 236.632 729.731 260.465C855.831 284.298 921.264 356.231 942.498 452.431Z" fill="#FEE4BF"/>
<path d="M527.798 621.865C527.798 621.865 514.364 556.865 451.098 564.665C396.498 571.598 377.431 702.465 501.364 738.865" fill="#FEE4BF"/>
<path d="M497.464 679.499C497.464 679.499 481.864 669.532 483.598 652.199C486.198 631.832 483.598 619.265 474.064 615.365C450.231 605.399 445.464 633.132 446.331 636.599" stroke="#423232" stroke-width="13" stroke-miterlimit="10" stroke-linecap="round" stroke-linejoin="round"/>
<path d="M828.098 721.531C828.098 721.531 844.565 722.398 860.165 703.765C868.831 693.365 876.198 680.365 871.431 676.465C866.665 672.131 788.231 684.265 783.031 694.665C777.831 705.065 808.165 721.531 828.098 721.531Z" fill="#EFBDA5"/>
<path d="M841.098 575.932C841.098 575.932 841.964 617.099 868.398 663.032C880.098 683.399 862.331 716.765 823.764 722.399" stroke="#423232" stroke-width="13" stroke-miterlimit="10" stroke-linecap="round" stroke-linejoin="round"/>
<path opacity="0.42" d="M606.231 743.631C630.881 743.631 650.864 727.14 650.864 706.797C650.864 686.455 630.881 669.964 606.231 669.964C581.581 669.964 561.598 686.455 561.598 706.797C561.598 727.14 581.581 743.631 606.231 743.631Z" fill="#F2A5B2"/>
<path opacity="0.42" d="M926.031 670.832C924.731 695.098 925.164 718.932 923.431 742.765C904.364 738.432 890.498 724.132 890.498 707.232C890.498 689.032 905.664 674.298 926.031 670.832Z" fill="#F2A5B2"/>
<path d="M496.385 947.753C496.385 947.753 487.718 894.019 472.985 897.052C404.518 912.652 204.752 970.719 134.985 1121.52C69.1184 1264.95 63.0518 1466.02 63.0518 1466.02H1158.95C1158.95 1466.02 1139.02 1160.52 1027.22 1066.92C960.918 1011.02 901.118 976.786 852.152 955.986C787.152 928.252 721.718 986.319 703.085 985.019C669.718 983.286 496.385 947.753 496.385 947.753Z" fill="#544D4D"/>
<path d="M277.552 1466.02L258.052 1305.25" stroke="white" stroke-width="13" stroke-miterlimit="10" stroke-linecap="round" stroke-linejoin="round"/>
<path d="M1034.15 1250.65C1034.15 1250.65 1021.15 1282.29 1025.05 1313.92C1028.95 1345.55 1040.22 1391.92 1024.19 1466.02" stroke="white" stroke-width="13" stroke-miterlimit="10" stroke-linecap="round" stroke-linejoin="round"/>
<path d="M446.552 853.287C446.552 853.287 415.352 864.553 409.719 870.62C404.085 876.687 401.485 880.587 401.485 880.587C401.485 880.587 385.885 897.92 377.219 939.953C373.319 957.72 382.419 986.753 375.485 1009.72C355.552 1073.42 450.019 1171.35 606.019 1228.99C724.319 1272.75 854.752 1232.89 872.952 1150.55C890.285 1071.25 879.885 1035.29 871.652 1009.72C855.185 960.32 849.985 946.453 827.885 927.387C814.019 915.253 804.485 940.387 752.485 954.687C736.452 959.02 716.952 962.487 691.819 963.353C542.319 968.987 479.052 884.053 456.519 859.787C450.885 855.02 448.285 852.42 446.552 853.287Z" fill="white"/>
<path d="M751.185 954.253C735.152 958.586 715.652 962.053 690.518 962.919C541.018 968.553 477.752 883.619 455.218 859.353" stroke="#CCCCCC" stroke-width="13" stroke-miterlimit="10" stroke-linecap="round" stroke-linejoin="round"/>
<path d="M830.485 911.787C869.918 944.72 938.385 1030.95 921.918 1223.79C913.685 1319.12 960.052 1358.55 949.652 1373.72C947.918 1376.32 945.752 1377.62 944.018 1378.05C936.652 1379.79 929.718 1383.25 926.252 1390.19C924.952 1393.22 922.785 1395.39 919.752 1397.12C917.152 1398.85 914.118 1398.85 911.518 1398.42C902.418 1396.25 892.452 1401.45 886.818 1409.25C884.652 1412.29 882.052 1414.45 878.152 1415.32C875.552 1416.19 872.952 1415.75 871.218 1415.32C863.852 1413.15 855.618 1415.32 849.118 1420.52C847.385 1421.82 845.652 1422.69 843.485 1422.69C839.585 1422.69 836.552 1420.95 833.952 1418.35C827.885 1412.72 819.218 1410.55 810.552 1413.59C809.685 1414.02 809.252 1414.02 808.385 1414.02C802.318 1414.89 797.552 1410.12 794.085 1401.89C790.618 1394.09 782.385 1390.62 773.718 1391.49C771.985 1391.49 770.252 1391.49 768.085 1391.05C751.185 1387.15 729.518 1363.75 729.085 1335.15C728.652 1306.99 735.152 1258.02 745.985 1235.05C779.352 1164.42 791.485 1113.72 793.218 1075.59C796.685 1005.82 752.485 943.42 756.818 942.12C801.018 933.02 830.485 911.787 830.485 911.787Z" fill="white"/>
<path d="M745.552 1235.05C778.918 1164.42 791.052 1113.72 792.785 1075.59C795.385 1021.85 769.385 972.02 759.852 951.654" stroke="#CCCCCC" stroke-width="13" stroke-miterlimit="10" stroke-linecap="round" stroke-linejoin="round"/>
<path d="M728.652 1335.15C728.219 1306.99 734.719 1258.02 745.552 1235.05C778.919 1164.42 791.052 1113.72 792.785 1075.59" stroke="#CCCCCC" stroke-width="13" stroke-miterlimit="10" stroke-linecap="round" stroke-linejoin="round"/>
<path d="M767.219 1183.92C767.219 1183.92 635.486 1196.92 548.819 1131.49" stroke="#CCCCCC" stroke-width="13" stroke-miterlimit="10" stroke-linecap="round" stroke-linejoin="round"/>
<path d="M802.753 955.554C814.886 973.32 828.753 999.32 832.219 1031.39" stroke="#CCCCCC" stroke-width="13" stroke-miterlimit="10" stroke-linecap="round" stroke-linejoin="round"/>
<path d="M857.786 1415.32C857.786 1415.32 835.686 1368.52 857.786 1266.69C881.186 1158.35 870.353 1105.05 870.353 1105.05" stroke="#CCCCCC" stroke-width="13" stroke-miterlimit="10" stroke-linecap="round" stroke-linejoin="round"/>
<path d="M376.352 961.622C376.352 961.622 405.385 1021.42 440.485 1049.16" stroke="#CCCCCC" stroke-width="13" stroke-miterlimit="10" stroke-linecap="round" stroke-linejoin="round"/>
<path d="M789.319 1105.05C789.319 1105.05 706.986 1110.69 648.919 1088.15" stroke="#CCCCCC" stroke-width="13" stroke-miterlimit="10" stroke-linecap="round" stroke-linejoin="round"/>
<path d="M683.943 619.44C673.543 619.007 665.743 610.34 666.61 599.94L667.043 587.807C667.476 577.407 676.143 569.607 686.543 570.473C696.943 570.907 704.743 579.573 703.876 589.973L703.443 602.107C703.01 612.074 694.343 619.874 683.943 619.44Z" fill="#423232"/>
<path d="M866.375 625.94C856.842 625.506 849.475 617.273 849.909 607.74L850.342 596.473C850.775 586.94 859.009 579.573 868.542 580.006C878.075 580.44 885.442 588.673 885.009 598.206L884.575 609.473C884.142 619.006 875.909 626.373 866.375 625.94Z" fill="#423232"/>
<path d="M725.976 594.306C725.976 594.306 714.71 578.273 695.21 575.239C679.176 572.639 661.41 580.439 658.81 589.539" stroke="#423232" stroke-width="13" stroke-miterlimit="10" stroke-linecap="round" stroke-linejoin="round"/>
<path d="M853.81 598.207C853.81 598.207 853.81 584.341 873.743 584.341C890.21 584.341 897.143 599.507 897.143 599.507" stroke="#423232" stroke-width="13" stroke-miterlimit="10" stroke-linecap="round" stroke-linejoin="round"/>
<path d="M743.743 524.539C752.843 527.572 761.943 519.339 760.209 509.372C759.343 504.172 757.176 498.972 752.843 495.072C739.843 483.372 686.109 472.973 653.609 488.139C625.009 502.006 702.143 510.672 743.743 524.539Z" fill="#423232"/>
<path d="M873.308 531.474C865.941 534.074 858.141 526.274 859.441 517.174C859.875 512.407 861.608 507.641 865.075 504.174C875.475 493.774 911.008 485.541 933.541 501.574C953.041 515.007 907.108 518.907 873.308 531.474Z" fill="#423232"/>
<path d="M812.331 773.797C801.498 778.564 796.297 769.031 779.397 777.264C767.264 782.897 760.764 784.631 746.031 775.964C736.497 769.897 724.797 778.564 713.531 762.097" stroke="#423232" stroke-width="13" stroke-miterlimit="10" stroke-linecap="round" stroke-linejoin="round"/>
<path d="M942.818 447.316C941.518 440.816 939.784 433.883 937.618 427.383C935.451 420.883 930.251 415.249 923.318 413.949C900.784 410.049 871.318 433.016 840.118 428.683C740.884 415.249 682.384 361.949 589.218 397.916C493.018 435.183 547.618 590.316 527.251 614.149C523.784 602.016 506.884 552.616 451.418 559.549C398.984 566.049 379.051 687.383 487.384 728.983C486.518 752.816 443.618 775.349 408.951 733.749C374.284 692.149 304.951 584.249 351.751 426.516C398.551 268.783 610.451 186.449 807.618 266.616C841.418 280.483 861.784 314.716 891.251 320.349C1165.12 372.349 976.184 631.483 967.951 701.249C965.784 725.083 949.318 478.516 942.818 447.316Z" fill="#423232"/>
<path d="M487.818 729.417C487.818 729.417 486.951 764.95 450.551 830.817C450.551 830.817 441.885 794.417 422.818 761.05C404.185 727.684 383.385 713.384 360.418 643.617C337.451 573.85 363.885 605.05 384.685 633.65C405.918 662.684 419.785 733.75 487.818 729.417Z" fill="#423232"/>
<path d="M870.885 402.25C870.885 402.25 914.218 317.316 757.351 240.616C600.485 163.916 439.718 217.65 343.085 207.25C343.085 207.25 452.285 280.916 563.651 299.983C675.018 319.05 870.885 402.25 870.885 402.25Z" fill="#423232"/>
<path d="M561.485 250.15C561.485 250.15 350.451 247.983 263.785 474.183C263.785 474.183 349.585 420.45 472.651 409.183C595.718 397.917 615.218 261.417 561.485 250.15Z" fill="#423232"/>
<path d="M893.418 412.216C893.418 412.216 1026.45 365.416 943.685 253.183C847.918 124.05 539.385 174.316 539.385 174.316C539.385 174.316 650.752 203.783 697.118 268.35C743.052 333.35 857.885 439.95 893.418 412.216Z" fill="#423232"/>
<path d="M797.218 420.45C797.218 420.45 709.684 373.65 656.384 419.15C589.651 476.35 606.984 757.15 606.984 757.15C606.984 757.15 528.551 615.45 529.851 482.417C531.151 349.383 592.251 316.017 656.384 321.65C720.518 327.284 788.984 399.65 797.218 420.45Z" fill="#423232"/>
<path d="M847.918 429.549C847.918 429.549 690.618 293.916 682.385 533.549C682.385 533.549 632.552 483.283 672.852 369.316C713.152 255.349 839.252 346.349 847.918 429.549Z" fill="#423232"/>
<path d="M477.158 636.126C477.158 636.126 442.492 630.926 445.092 679.459C446.392 704.159 446.392 717.592 445.958 724.526C445.525 729.292 448.558 733.626 452.892 735.359C458.092 737.526 463.725 735.359 466.325 730.159C470.225 723.226 474.558 713.692 474.558 705.892C474.558 692.892 488.425 681.192 488.425 681.192C488.425 681.192 475.858 670.359 477.158 636.126Z" fill="white"/>
<path d="M582.025 1471.59C578.559 1467.69 442.492 1234.99 462.859 1147.46C476.725 1087.23 458.525 1017.89 442.492 956.793C435.992 931.66 429.925 908.26 426.458 887.46C420.392 851.493 424.725 817.26 439.458 785.626C455.492 750.093 452.892 719.326 452.892 718.893L461.559 718.026C461.559 719.326 464.158 751.826 447.259 789.093C433.392 818.993 429.492 851.926 435.125 886.16C438.592 906.526 444.659 929.926 451.159 955.06C467.625 1017.03 485.825 1087.66 471.525 1150.06C452.459 1233.26 588.092 1465.96 588.958 1466.83L582.025 1471.59Z" fill="white"/>
<path d="M446.392 704.593C446.826 714.126 446.392 720.626 446.392 724.526C445.959 729.292 448.992 733.626 453.326 735.359C458.526 737.526 464.159 735.359 466.759 730.159C470.659 723.226 474.992 713.692 474.992 705.892C474.992 705.459 474.992 704.593 474.992 704.159C465.892 707.626 455.492 710.226 446.392 704.593Z" fill="#E5E5E5"/>
<path d="M854.158 992.759C851.125 1012.69 850.692 1044.33 849.825 1081.16C848.525 1152.23 806.492 1429.13 786.125 1472.89L778.325 1469.43C797.825 1426.96 839.858 1151.36 841.158 1081.16C842.025 1044.33 842.458 1012.26 845.492 991.459C851.992 947.692 847.225 914.759 844.625 900.892C845.925 899.592 847.225 898.725 848.525 897.425C849.825 896.559 850.692 895.259 851.992 894.392C854.592 905.659 861.958 941.625 854.158 992.759Z" fill="white"/>
</g>
</svg>
